<mxfile host="app.diagrams.net" modified="2023-07-03T23:55:11.774Z" agent="Mozilla/5.0 (Macintosh; Intel Mac OS X 10_15_7) AppleWebKit/537.36 (KHTML, like Gecko) Chrome/114.0.0.0 Safari/537.36" version="21.5.2" etag="OKvtsBr4do9efWit3Jox" type="github">
  <diagram name="PÃ¡gina-1" id="03ZW_IggBcfbCw7r5pQ_">
    <mxGraphModel>
      <root>
        <mxCell id="0" />
        <mxCell id="1" parent="0" />
      </root>
    </mxGraphModel>
  </diagram>
</mxfile>
